<svg height="400" style='style="outline: 5px solid #800000;"' viewBox="0 0 400 400" width="400" xmlns="http://www.w3.org/2000/svg">
<rect fill="#ffffff" height="400" width="400" x="0" y="0"/>
<path d="M200,200 L200,360 L200,640 L200,200 L200,200 L200,200 L200,200 L200,200 L200,200 L560,200 L200,200 L200,200 L520,200 L200,200 L200,200 L560,200 L200,200 L200,320 L200,440 L200,200 L200,200 L200,520 L200,40 L200,40 L200,40 L200,-200 L200,200 L200,200 L200,440 L200,-40 L200,400 L200,480 L200,120 L200,-200 L200,440 L200,120 L200,120 L-40,120 L280,120 L280,120 L280,120" fill="none" stroke="#2f2f2f" stroke-opacity="0,9" stroke-width="5"/>
<rect fill="#ffffff" fill-opacity="0.0" height="400" stroke="#cccccc" stroke-width="15" width="400" x="0" y="0"/>
</svg>